<?xml version="1.0" encoding="utf-8"?>
<!-- Generator: Adobe Illustrator 19.2.1, SVG Export Plug-In . SVG Version: 6.00 Build 0)  -->
<svg version="1.1" id="Layer_1" xmlns="http://www.w3.org/2000/svg" xmlns:xlink="http://www.w3.org/1999/xlink" x="0px" y="0px"
	 viewBox="0 0 32 32" style="enable-background:new 0 0 32 32;" xml:space="preserve">
<path d="M16,7c-4.3,0.2-7.8,3.7-8,8c0,2.1,0.8,4.2,2.3,5.7c1,0.8,1.6,2,1.7,3.3c0,0.6,0.4,1,1,1h6c0.6,0,1-0.4,1-1
	c0.1-1.3,0.7-2.5,1.7-3.3c1.5-1.5,2.4-3.6,2.3-5.7c0-2.2-0.9-4.3-2.4-5.8C20.1,7.7,18.1,6.9,16,7z M20.3,19.3
	c-1.1,1-1.9,2.3-2.3,3.7h-4.2c-0.3-1.4-1.1-2.7-2.2-3.7C10.6,18.1,10,16.6,10,15c0.1-3.3,2.7-5.9,6-6c1.5-0.1,3,0.5,4.1,1.6
	c1.2,1.2,1.9,2.7,1.9,4.4C22,16.6,21.4,18.1,20.3,19.3L20.3,19.3z"/>
<path d="M19,26h-6c-0.6,0-1,0.4-1,1s0.4,1,1,1h6c0.6,0,1-0.4,1-1S19.6,26,19,26z"/>
<path d="M18,29h-4c-0.6,0-1,0.4-1,1s0.4,1,1,1h4c0.6,0,1-0.4,1-1S18.6,29,18,29z"/>
<path d="M16,5c0.6,0,1-0.4,1-1V2c0-0.6-0.4-1-1-1c-0.6,0-1,0.4-1,1v2C15,4.6,15.4,5,16,5z"/>
<path d="M5,14H3c-0.6,0-1,0.4-1,1s0.4,1,1,1h2c0.6,0,1-0.4,1-1S5.6,14,5,14z"/>
<path d="M29,14h-2c-0.6,0-1,0.4-1,1s0.4,1,1,1h2c0.6,0,1-0.4,1-1S29.6,14,29,14z"/>
<path d="M25.9,5.1c-0.4-0.4-1-0.4-1.4,0l-1.4,1.4c-0.4,0.4-0.4,1,0,1.4c0,0,0,0,0,0c0.2,0.2,0.4,0.3,0.7,0.3c0.3,0,0.5-0.1,0.7-0.3
	l1.4-1.4C26.3,6.1,26.3,5.5,25.9,5.1z"/>
<path d="M8.9,7.9c0.4-0.4,0.4-1,0-1.4c0,0,0,0,0,0L7.5,5.1C7.1,4.7,6.5,4.8,6.1,5.2c-0.3,0.4-0.3,0.9,0,1.3l1.4,1.4
	C7.7,8.1,8,8.2,8.2,8.2C8.5,8.2,8.7,8.1,8.9,7.9z"/>
</svg>
